<svg width="61" height="61" viewBox="0 0 61 61" fill="none" xmlns="http://www.w3.org/2000/svg">
<path d="M30.5 36.2189C13.115 36.2189 0 30.5001 0 22.8751C0 15.2501 13.115 9.53137 30.5 9.53137C47.885 9.53137 61 15.2501 61 22.8751C61 30.5001 47.885 36.2189 30.5 36.2189ZM30.5 13.3439C14.7925 13.3439 3.8125 18.3764 3.8125 22.8751C3.8125 27.3739 14.7925 32.4064 30.5 32.4064C46.2075 32.4064 57.1875 27.3739 57.1875 22.8751C57.1875 18.3764 46.2075 13.3439 30.5 13.3439Z" fill="#30322D"/>
<path d="M30.4999 61.0001C17.8424 61.0001 7.89182 55.2813 7.62495 47.9613L0.0761871 23.4469L3.73618 22.3413L11.4374 47.6944C11.4374 52.8413 20.1681 57.2257 30.4999 57.2257C40.8318 57.2257 49.5624 52.8413 49.5624 47.6944L49.6387 47.1226L57.2637 22.3413L60.9237 23.4469L53.3749 47.9613C53.0699 55.2813 43.1574 61.0001 30.4999 61.0001Z" fill="#30322D"/>
<path d="M22.5699 34.0076H18.7575V45.4451H22.5699V34.0076Z" fill="#30322D"/>
<path d="M41.6325 34.0076H37.82V45.4451H41.6325V34.0076Z" fill="#30322D"/>
<path d="M41.9375 13.3438C41.9375 20.7019 36.8287 26.6875 30.5 26.6875C24.1712 26.6875 19.0625 20.7019 19.0625 13.3438C19.0625 5.98563 30.5 0 30.5 0C30.5 0 41.9375 5.98563 41.9375 13.3438Z" fill="#30322D"/>
</svg>
